<svg width="131" height="104" viewBox="0 0 131 104" fill="none" xmlns="http://www.w3.org/2000/svg">
<path d="M23.1443 2H15.567C8.64353 2 4.31282 9.49069 7.76735 15.4907L24.2904 44.1887C27.6551 50.0326 36.0142 50.2371 39.6607 44.5648L43.6957 38.2881C45.5198 35.4506 45.604 31.8313 43.9139 28.912L30.9332 6.49068C29.3241 3.71132 26.3559 2 23.1443 2Z" fill="#00C2FF" fill-opacity="0.8"/>
<path d="M66.9275 22.8895L42.5929 65.7649C40.9907 68.5877 41.0327 72.0545 42.7026 74.8378L46.8747 81.7913C50.4624 87.7708 59.1937 87.5749 62.5096 81.4405L86.0354 37.9177C87.4704 35.2629 87.4793 32.0656 86.0592 29.4028L82.6959 23.0966C79.3579 16.8379 70.4288 16.7206 66.9275 22.8895Z" fill="#00C2FF" fill-opacity="0.8"/>
<path d="M107.9 2H101.574C94.8012 2 90.4553 9.19853 93.6096 15.1917L101.055 29.3379C102.476 32.0373 102.432 35.2725 100.94 37.9329L72.5188 88.5967C69.1534 94.5961 73.4893 102 80.3681 102H87.9487C91.2643 102 94.3114 100.177 95.8791 97.2554L127.738 37.8812C129.152 35.246 129.165 32.0806 127.772 29.4341L115.864 6.80829C114.308 3.85132 111.241 2 107.9 2Z" fill="#00C2FF" fill-opacity="0.8"/>
<path d="M23.1443 2H15.567C8.64353 2 4.31282 9.49069 7.76735 15.4907L24.2904 44.1887C27.6551 50.0326 36.0142 50.2371 39.6607 44.5648L43.6957 38.2881C45.5198 35.4506 45.604 31.8313 43.9139 28.912L30.9332 6.49068C29.3241 3.71132 26.3559 2 23.1443 2Z" stroke="#00C2FF" stroke-width="4"/>
<path d="M66.9275 22.8895L42.5929 65.7649C40.9907 68.5877 41.0327 72.0545 42.7026 74.8378L46.8747 81.7913C50.4624 87.7708 59.1937 87.5749 62.5096 81.4405L86.0354 37.9177C87.4704 35.2629 87.4793 32.0656 86.0592 29.4028L82.6959 23.0966C79.3579 16.8379 70.4288 16.7206 66.9275 22.8895Z" stroke="#00C2FF" stroke-width="4"/>
<path d="M107.9 2H101.574C94.8012 2 90.4553 9.19853 93.6096 15.1917L101.055 29.3379C102.476 32.0373 102.432 35.2725 100.94 37.9329L72.5188 88.5967C69.1534 94.5961 73.4893 102 80.3681 102H87.9487C91.2643 102 94.3114 100.177 95.8791 97.2554L127.738 37.8812C129.152 35.246 129.165 32.0806 127.772 29.4341L115.864 6.80829C114.308 3.85132 111.241 2 107.9 2Z" stroke="#00C2FF" stroke-width="4"/>
</svg>
